<svg version="1" xmlns="http://www.w3.org/2000/svg" width="682.667" height="682.667" viewBox="0 0 512.000000 512.000000"><path d="M227 4.7c-7.3.6-28.7 4.3-39.5 6.8-30.9 7.3-64.9 23.2-91.1 42.6-55 40.6-83 88-94.1 158.9-2.3 14.7-2.6 69-.5 84 8.2 57.5 28 99.9 63.1 135 37 37 85 62.5 135 72 35.8 6.8 79.4 6.7 113.6-.1 47-9.4 92.6-33.3 127.9-67 36.9-35.3 59.8-82.6 66.5-137.9 6.2-50 1.2-101-13.7-141.6-10.8-29.6-28.1-56.6-50.2-78.4-41.9-41.4-99-68.3-157.4-73.9-10-1-48.8-1.2-59.6-.4zm50.7 123.8c37.9 7.2 71.3 35.4 84.3 71.3 7.4 20.4 9.5 35.3 8.7 63-.6 21.3-2.3 32.4-7.2 46.8-12.3 35.7-42 64-78 74.1-9.5 2.7-11 2.8-30.5 2.7-18.9 0-21.3-.2-30.1-2.6-39.7-10.8-70.3-42.2-80.8-82.8-3.8-15-5.1-26.1-5.1-44.5 0-18.5 1.2-28.6 5.1-43.5 5.3-20.3 14.1-36.2 27.8-50.3 17.1-17.7 39.6-30 62.6-34.2 9.9-1.9 33.5-1.8 43.2 0z"/></svg>