<svg version="1" xmlns="http://www.w3.org/2000/svg" width="682.667" height="682.667" viewBox="0 0 512.000000 512.000000"><path d="M232.5 13.6c-13.2 1.4-33.6 4.8-43.6 7.4-44 11.2-85.3 35.1-117 67.6-34.3 35.4-53 77-59.5 132.5-2.1 18.3-1.5 62.6 1.1 78.9 10.9 69.5 42.3 119.2 98.6 156.2 44 28.9 89.4 42.1 144.9 42.1 60 0 108.6-15.7 154.5-49.8 63.1-46.9 91.6-111.7 89.2-202.4-2.3-85.1-33.9-145.6-99.2-190-31.8-21.7-65.4-34.6-105.7-40.7-9.9-1.5-54-2.7-63.3-1.8zm51.7 120.7c18.1 4.8 33 13.1 47.1 26.6 13.9 13.3 22.7 27 28.7 44.5 11.7 34.6 9.8 81.4-4.5 112.4-7.8 16.8-23 34.7-38.4 45.1-8.8 6-22.9 12.5-33.1 15.3-7.6 2.1-10.7 2.3-28.5 2.3-17.6-.1-21-.3-28.5-2.3-23.7-6.4-48.1-23.7-61.8-43.9-9-13.2-15.7-30.7-18.9-49.1-2.4-13.7-2.4-46.1.1-59.2 5-27 15.4-47 33.1-63.9 16-15.2 36-25.6 56-29 3.3-.6 7.1-1.3 8.5-1.5 1.4-.3 8.8-.3 16.5-.1 10.9.2 16.1.9 23.7 2.8z"/></svg>